<?xml version="1.0" encoding="utf-8"?>
<!-- Generator: Adobe Illustrator 14.0.0, SVG Export Plug-In . SVG Version: 6.00 Build 43363)  -->
<!DOCTYPE svg PUBLIC "-//W3C//DTD SVG 1.1//EN" "http://www.w3.org/Graphics/SVG/1.1/DTD/svg11.dtd">
<svg version="1.1" id="Layer_1" xmlns="http://www.w3.org/2000/svg" xmlns:xlink="http://www.w3.org/1999/xlink" x="0px" y="0px"
	 width="345.234px" height="392px" viewBox="0 0 345.234 392" enable-background="new 0 0 345.234 392" xml:space="preserve">
<g>
	<path opacity="0.2" fill="#1B1F8A" enable-background="new    " d="M47.403,39.229c-34.517,15.204-42.426,57.03-27.82,93.891
		c14.605,36.861,31.993,73.723,27.82,112.67c-4.173,38.947,11.823,118.929,93.195,121.711
		c81.372,2.781,182.915-56.334,180.48-138.75c-2.435-82.416-49.729-131.101-120.668-142.924
		C129.471,74.004,105.825,13.496,47.403,39.229z"/>
	<path fill="none" stroke="#000000" stroke-width="1.7127" d="M47.403,39.229c-34.517,15.204-42.426,57.03-27.82,93.891
		c14.605,36.861,31.993,73.723,27.82,112.67c-4.173,38.947,11.823,118.929,93.195,121.711
		c81.372,2.781,182.915-56.334,180.48-138.75c-2.435-82.416-49.729-131.101-120.668-142.924
		C129.471,74.004,105.825,13.496,47.403,39.229z"/>
</g>
<rect x="149.696" y="196.922" fill="none" stroke="#231F20" stroke-width="0.9429" width="47.147" height="47.147"/>
<rect x="196.844" y="196.922" opacity="0.2" fill="#1B1F8A" enable-background="new    " width="47.147" height="47.147"/>
<rect x="102.549" y="196.922" opacity="0.2" fill="#1B1F8A" enable-background="new    " width="47.147" height="47.147"/>
<rect x="102.549" y="149.774" opacity="0.15" fill="#1B1F8A" enable-background="new    " width="47.147" height="47.148"/>
<rect x="55.402" y="149.774" opacity="0.05" fill="#1B1F8A" enable-background="new    " width="47.147" height="47.148"/>
<rect x="55.402" y="196.922" opacity="0.1" fill="#1B1F8A" enable-background="new    " width="47.147" height="47.147"/>
<rect x="55.402" y="244.069" opacity="0.05" fill="#1B1F8A" enable-background="new    " width="47.147" height="47.148"/>
<rect x="102.549" y="102.626" opacity="0.05" fill="#1B1F8A" enable-background="new    " width="47.147" height="47.148"/>
<rect x="149.696" y="149.774" opacity="0.2" fill="#1B1F8A" enable-background="new    " width="47.146" height="47.148"/>
<rect x="149.696" y="102.626" opacity="0.1" fill="#1B1F8A" enable-background="new    " width="47.146" height="47.148"/>
<rect x="196.844" y="149.774" opacity="0.15" fill="#1B1F8A" enable-background="new    " width="47.147" height="47.148"/>
<rect x="243.991" y="149.774" opacity="0.05" fill="#1B1F8A" enable-background="new    " width="47.146" height="47.148"/>
<rect x="243.991" y="196.922" opacity="0.1" fill="#1B1F8A" enable-background="new    " width="47.146" height="47.147"/>
<rect x="243.991" y="244.069" opacity="0.05" fill="#1B1F8A" enable-background="new    " width="47.146" height="47.148"/>
<rect x="196.844" y="102.626" opacity="0.05" fill="#1B1F8A" enable-background="new    " width="47.147" height="47.148"/>
<rect x="102.549" y="244.069" opacity="0.15" fill="#1B1F8A" enable-background="new    " width="47.147" height="47.148"/>
<rect x="102.549" y="291.217" opacity="0.05" fill="#1B1F8A" enable-background="new    " width="47.147" height="47.147"/>
<rect x="149.696" y="244.069" opacity="0.2" fill="#1B1F8A" enable-background="new    " width="47.146" height="47.148"/>
<rect x="149.696" y="291.217" opacity="0.1" fill="#1B1F8A" enable-background="new    " width="47.146" height="47.147"/>
<rect x="196.844" y="244.069" opacity="0.15" fill="#1B1F8A" enable-background="new    " width="47.147" height="47.148"/>
<rect x="196.844" y="291.217" opacity="0.05" fill="#1B1F8A" enable-background="new    " width="47.147" height="47.147"/>
<rect x="149.696" y="196.922" opacity="0.1" fill="none" stroke="#231F20" width="47.147" height="47.147"/>
<rect x="196.844" y="196.922" opacity="0.1" fill="none" stroke="#231F20" width="47.147" height="47.147"/>
<rect x="102.549" y="196.922" opacity="0.1" fill="none" stroke="#231F20" width="47.147" height="47.147"/>
<rect x="102.549" y="149.774" opacity="0.1" fill="none" stroke="#231F20" width="47.147" height="47.148"/>
<rect x="55.402" y="149.774" opacity="0.1" fill="none" stroke="#231F20" width="47.147" height="47.148"/>
<rect x="55.402" y="196.922" opacity="0.1" fill="none" stroke="#231F20" width="47.147" height="47.147"/>
<rect x="55.402" y="244.069" opacity="0.1" fill="none" stroke="#231F20" width="47.147" height="47.148"/>
<rect x="102.549" y="102.626" opacity="0.1" fill="none" stroke="#231F20" width="47.147" height="47.148"/>
<rect x="149.696" y="149.774" opacity="0.1" fill="none" stroke="#231F20" width="47.146" height="47.148"/>
<rect x="149.696" y="102.626" opacity="0.1" fill="none" stroke="#231F20" width="47.146" height="47.148"/>
<rect x="196.844" y="149.774" opacity="0.1" fill="none" stroke="#231F20" width="47.147" height="47.148"/>
<rect x="243.991" y="149.774" opacity="0.1" fill="none" stroke="#231F20" width="47.146" height="47.148"/>
<rect x="243.991" y="196.922" opacity="0.1" fill="none" stroke="#231F20" width="47.146" height="47.147"/>
<rect x="243.991" y="244.069" opacity="0.1" fill="none" stroke="#231F20" width="47.146" height="47.148"/>
<rect x="196.844" y="102.626" opacity="0.1" fill="none" stroke="#231F20" width="47.147" height="47.148"/>
<rect x="243.99" y="102.626" opacity="0.1" fill="none" stroke="#231F20" width="47.147" height="47.148"/>
<rect x="55.401" y="102.626" opacity="0.1" fill="none" stroke="#231F20" width="47.147" height="47.148"/>
<rect x="55.401" y="291.216" opacity="0.1" fill="none" stroke="#231F20" width="47.147" height="47.148"/>
<rect x="8.254" y="149.774" opacity="0.1" fill="none" stroke="#231F20" width="47.147" height="47.148"/>
<rect x="8.254" y="196.922" opacity="0.1" fill="none" stroke="#231F20" width="47.147" height="47.147"/>
<rect x="8.254" y="244.069" opacity="0.1" fill="none" stroke="#231F20" width="47.147" height="47.148"/>
<rect x="8.254" y="102.626" opacity="0.1" fill="none" stroke="#231F20" width="47.147" height="47.148"/>
<rect x="8.254" y="291.216" opacity="0.1" fill="none" stroke="#231F20" width="47.147" height="47.148"/>
<rect x="243.991" y="291.216" opacity="0.1" fill="none" stroke="#231F20" width="47.147" height="47.148"/>
<rect x="291.14" y="149.774" opacity="0.1" fill="none" stroke="#231F20" width="47.146" height="47.148"/>
<rect x="291.14" y="196.922" opacity="0.1" fill="none" stroke="#231F20" width="47.146" height="47.147"/>
<rect x="291.14" y="244.069" opacity="0.1" fill="none" stroke="#231F20" width="47.146" height="47.148"/>
<rect x="291.139" y="102.626" opacity="0.1" fill="none" stroke="#231F20" width="47.147" height="47.148"/>
<rect x="102.549" y="55.479" opacity="0.1" fill="none" stroke="#231F20" width="47.147" height="47.148"/>
<rect x="149.696" y="55.479" opacity="0.1" fill="none" stroke="#231F20" width="47.146" height="47.148"/>
<rect x="196.844" y="55.479" opacity="0.1" fill="none" stroke="#231F20" width="47.147" height="47.148"/>
<rect x="243.99" y="55.479" opacity="0.1" fill="none" stroke="#231F20" width="47.147" height="47.148"/>
<rect x="55.401" y="55.479" opacity="0.1" fill="none" stroke="#231F20" width="47.147" height="47.148"/>
<rect x="8.254" y="55.479" opacity="0.1" fill="none" stroke="#231F20" width="47.147" height="47.148"/>
<rect x="102.549" y="8.331" opacity="0.1" fill="none" stroke="#231F20" width="47.147" height="47.148"/>
<rect x="55.401" y="8.331" opacity="0.1" fill="none" stroke="#231F20" width="47.147" height="47.148"/>
<rect x="8.254" y="8.331" opacity="0.1" fill="none" stroke="#231F20" width="47.147" height="47.148"/>
<rect x="291.14" y="291.216" opacity="0.1" fill="none" stroke="#231F20" width="47.147" height="47.148"/>
<rect x="102.549" y="244.069" opacity="0.1" fill="none" stroke="#231F20" width="47.147" height="47.148"/>
<rect x="102.549" y="291.217" opacity="0.1" fill="none" stroke="#231F20" width="47.147" height="47.147"/>
<rect x="149.696" y="244.069" opacity="0.1" fill="none" stroke="#231F20" width="47.146" height="47.148"/>
<rect x="149.696" y="291.217" opacity="0.1" fill="none" stroke="#231F20" width="47.146" height="47.147"/>
<rect x="196.844" y="244.069" opacity="0.1" fill="none" stroke="#231F20" width="47.147" height="47.148"/>
<rect x="196.844" y="291.217" opacity="0.1" fill="none" stroke="#231F20" width="47.147" height="47.147"/>
<rect x="55.401" y="338.365" opacity="0.1" fill="none" stroke="#231F20" width="47.147" height="47.148"/>
<rect x="243.991" y="338.365" opacity="0.1" fill="none" stroke="#231F20" width="47.147" height="47.148"/>
<rect x="102.549" y="338.366" opacity="0.1" fill="none" stroke="#231F20" width="47.147" height="47.147"/>
<rect x="149.696" y="338.366" opacity="0.1" fill="none" stroke="#231F20" width="47.146" height="47.147"/>
<rect x="196.844" y="338.366" opacity="0.1" fill="none" stroke="#231F20" width="47.147" height="47.147"/>
<rect x="149.696" y="196.922" opacity="0.25" fill="#1B1F8A" enable-background="new    " width="47.147" height="47.147"/>
<g>
	<g>
		<line fill="none" stroke="#000000" stroke-width="2.9135" x1="149.696" y1="254.585" x2="196.844" y2="254.585"/>
		<polygon points="205.072,254.585 193.477,259.323 196.229,254.585 193.477,249.849 		"/>
	</g>
</g>
<g>
	<g>
		<line fill="none" stroke="#000000" stroke-width="2.9135" x1="139.488" y1="244.069" x2="139.488" y2="196.922"/>
		<polygon points="139.488,188.694 144.225,200.29 139.488,197.538 134.751,200.29 		"/>
	</g>
</g>
<g>
	<defs>
		<rect id="SVGID_1_" x="32.8" y="63.389" width="19" height="21"/>
	</defs>
	<clipPath id="SVGID_2_">
		<use xlink:href="#SVGID_1_"  overflow="visible"/>
	</clipPath>
	<path clip-path="url(#SVGID_2_)" d="M51.225,79.741h-0.718c-0.143,0.737-0.258,1.389-0.516,2.068
		c-0.145,0.454-0.23,0.68-1.895,0.68h-2.296c0.375-1.601,1.269-2.973,2.563-4.859c1.354-2.03,2.537-4.002,2.537-6.262
		c0-3.973-3.881-7.179-8.736-7.179c-4.943,0-8.764,3.263-8.764,7.179c0,2.26,1.181,4.231,2.534,6.262
		c1.269,1.887,2.19,3.259,2.565,4.859h-2.303c-1.668,0-1.754-0.227-1.897-0.651c-0.229-0.652-0.374-1.388-0.519-2.097h-0.719
		l0.944,4.647h4.577c0.629,0,0.716,0,0.716-0.603c0-2.009-0.873-4.533-1.521-6.369c-0.592-1.664-1.381-3.932-1.381-6.083
		c0-4.591,3.14-6.546,5.736-6.546c2.74,0,5.766,2.069,5.766,6.546c0,2.151-0.761,4.333-1.576,6.686
		c-0.424,1.205-1.323,3.787-1.323,5.767c0,0.603,0.086,0.603,0.742,0.603h4.54"/>
</g>
<g>
	<defs>
		<rect id="SVGID_3_" x="163.901" y="261.333" width="15" height="14"/>
	</defs>
	<clipPath id="SVGID_4_">
		<use xlink:href="#SVGID_3_"  overflow="visible"/>
	</clipPath>
	<path clip-path="url(#SVGID_4_)" d="M173.243,273.126c0.316,1.166,1.32,1.906,2.553,1.906c1.004,0,1.664-0.657,2.123-1.572
		c0.488-1.029,0.862-2.773,0.862-2.83c0-0.287-0.261-0.287-0.347-0.287c-0.288,0-0.316,0.116-0.403,0.52
		c-0.403,1.611-0.95,3.57-2.159,3.57c-0.604,0-0.892-0.373-0.892-1.32c0-0.633,0.345-1.982,0.576-2.988
		c0.259-1.034,0.547-2.068,0.806-3.104c0.086-0.431,0.374-1.521,0.489-1.952c0.144-0.661,0.432-1.753,0.432-1.925
		c0-0.518-0.403-0.776-0.835-0.776c-0.144,0-0.892,0.028-1.123,1.006c-0.547,2.097-1.812,7.124-2.159,8.647
		c-0.028,0.114-1.18,2.412-3.28,2.412c-1.497,0-1.785-1.294-1.785-2.358c0-1.611,0.828-3.884,1.596-5.867
		c0.355-0.863,0.503-1.267,0.503-1.812c0-1.295-0.923-2.362-2.364-2.362c-2.736,0-3.803,4.177-3.803,4.436
		c0,0.288,0.29,0.288,0.348,0.288c0.291,0,0.319-0.058,0.465-0.522c0.725-2.526,1.826-3.602,2.93-3.602
		c0.261,0,0.726,0.032,0.726,0.952c0,0.69-0.322,1.524-0.499,1.955c-1.085,2.848-1.699,4.631-1.699,6.04
		c0,2.731,1.979,3.452,3.528,3.452C171.724,275.033,172.757,273.752,173.243,273.126"/>
</g>
<g>
	<defs>
		<rect id="SVGID_5_" x="119.901" y="214.333" width="14" height="14"/>
	</defs>
	<clipPath id="SVGID_6_">
		<use xlink:href="#SVGID_5_"  overflow="visible"/>
	</clipPath>
	<path clip-path="url(#SVGID_6_)" d="M133.3,217.043c0-1.549-0.754-2.01-1.276-2.01c-0.726,0-1.422,0.751-1.422,1.384
		c0,0.374,0.148,0.546,0.478,0.863c0.627,0.574,1.017,1.322,1.017,2.358c0,1.208-1.767,7.796-5.152,7.796
		c-1.476,0-2.142-1.008-2.142-2.503c0-1.61,0.809-3.71,1.739-6.098c0.209-0.489,0.36-0.891,0.36-1.438
		c0-1.295-0.923-2.361-2.364-2.361c-2.708,0-3.803,4.177-3.803,4.436c0,0.288,0.29,0.288,0.348,0.288
		c0.29,0,0.319-0.058,0.464-0.522c0.841-2.933,2.089-3.602,2.93-3.602c0.232,0,0.726,0,0.726,0.923c0,0.72-0.297,1.496-0.505,2.014
		c-1.307,3.336-1.694,4.659-1.694,5.896c0,3.107,2.56,3.567,3.899,3.567c4.778,0,6.4-9.497,6.4-10.989"/>
</g>
<g>
	<defs>
		<rect id="SVGID_7_" x="158.901" y="207.333" width="29" height="26"/>
	</defs>
	<clipPath id="SVGID_8_">
		<use xlink:href="#SVGID_7_"  overflow="visible"/>
	</clipPath>
	<path clip-path="url(#SVGID_8_)" d="M167.08,220.933l5.652-9.485l0.918,9.485 M163.638,225.13
		c-1.148,1.917-2.268,2.317-3.529,2.403c-0.344,0.028-0.602,0.028-0.602,0.58c0,0.174,0.143,0.318,0.373,0.318
		c0.774,0,1.664-0.086,2.468-0.086c0.946,0,1.95,0.086,2.868,0.086c0.173,0,0.546,0,0.546-0.551c0-0.319-0.259-0.348-0.459-0.348
		c-0.66-0.058-1.349-0.285-1.349-0.997c0-0.342,0.172-0.655,0.402-1.055c0.201-0.343,0.23-0.343,2.181-3.648h7.202
		c0.057,0.599,0.459,4.475,0.459,4.759c0,0.855-1.492,0.941-2.066,0.941c-0.401,0-0.688,0-0.688,0.58
		c0,0.318,0.344,0.318,0.402,0.318c1.177,0,2.409-0.086,3.587-0.086c0.717,0,2.524,0.086,3.242,0.086c0.172,0,0.516,0,0.516-0.579
		c0-0.319-0.287-0.319-0.66-0.319c-1.779,0-1.779-0.2-1.865-1.03l-1.75-17.88c-0.057-0.572-0.057-0.691-0.545-0.691
		c-0.459,0-0.574,0.205-0.746,0.491L163.638,225.13z"/>
	<path clip-path="url(#SVGID_8_)" d="M182.477,230.381c-0.078,0.261-0.175,0.502-0.175,0.845c0,0.943,0.791,1.706,1.88,1.706
		c1.979,0,2.85-2.77,2.85-3.07c0-0.261-0.261-0.261-0.321-0.261c-0.28,0-0.301,0.118-0.381,0.336
		c-0.461,1.584-1.343,2.396-2.125,2.396c-0.4,0-0.502-0.261-0.502-0.703c0-0.462,0.137-0.844,0.312-1.286
		c0.193-0.542,0.407-1.085,0.62-1.606c0.176-0.482,0.873-2.312,0.951-2.553c0.059-0.2,0.116-0.441,0.116-0.643
		c0-0.945-0.793-1.709-1.882-1.709c-1.962,0-2.873,2.768-2.873,3.112c0,0.264,0.281,0.264,0.341,0.264
		c0.281,0,0.302-0.1,0.362-0.322c0.521-1.729,1.406-2.454,2.148-2.454c0.321,0,0.504,0.162,0.504,0.705
		c0,0.463-0.116,0.764-0.6,2.01 M186.509,220.209c0-0.327-0.241-0.777-0.805-0.777c-0.542,0-1.125,0.531-1.125,1.124
		c0,0.349,0.262,0.777,0.805,0.777C185.966,221.333,186.509,220.761,186.509,220.209z"/>
</g>
</svg>
